<svg width="3807" height="2276" viewBox="0 0 3807 2276" fill="none" xmlns="http://www.w3.org/2000/svg">
<g clip-path="url(#clip0_2_17)" filter="url(#filter0_d_2_17)">
<rect width="3799" height="2268" transform="translate(4)" fill="#3D253B"/>
<path d="M238.309 -0.0510471V74.6387C238.309 75.191 237.861 75.6387 237.309 75.6387H207.79M178.747 75.6387H156.596M128.046 75.6387H125.585M444.068 247.17H442.099M407.642 247.17H364.324M255.046 247.17H364.324M364.324 247.17V199.003M237.817 264.372V329.74M237.817 355.789V357.755M237.817 452.122V493.882C237.817 494.434 237.369 494.882 236.817 494.882H110.817M363.832 401.007L364.078 354.315M364.324 307.623L364.078 354.315M364.078 354.315H488.355C488.907 354.315 489.355 354.763 489.355 355.315V390.194M410.595 512.575H486.893M659.672 512.575H613.401M613.401 512.575V561.724M613.401 512.575H486.893M486.893 512.575V591.706M459.328 606.45H456.866M420.932 606.45H254.553M100.48 247.17H97.5268M62.085 247.17H4M113.771 683.615V713.596M147.244 683.615V685.581M192.53 683.615H237.309C237.861 683.615 238.309 684.062 238.309 684.615V746.526M503.63 680.174V748M736.954 603.993V606.45M736.954 640.363V684.106M736.954 747.509V684.106M736.954 684.106H799.962M845.741 684.106H847.71M879.214 684.106V747.509M689.699 512.575H692.652M757.137 467.358V495.356C757.137 495.908 757.584 496.356 758.137 496.356H879.214M661.149 247.17H738.908C739.46 247.17 739.908 246.722 739.908 246.17V166.565M709.881 151.82H706.435M673.947 151.82H489.355M489.355 124.296L490.831 -1.03403M753.691 -3V76.6047C753.691 77.157 754.139 77.6047 754.691 77.6047H785.687M814.729 77.6047H838.357M864.446 77.6047H866.907M890.043 247.17H892.996M922.039 247.17H988" stroke="#362031" stroke-width="14" stroke-linecap="round"/>
<path d="M2780.55 5.94503V80.534C2780.55 81.0863 2780.1 81.534 2779.55 81.534H2750M2720.92 81.534H2698.75M2670.17 81.534H2667.71M2986.52 252.836H2984.54M2950.05 252.836H2906.69M2797.3 252.836H2906.69M2906.69 252.836V204.734M2780.05 270.016V335.297M2780.05 361.312V363.275M2780.05 457.516V499.219C2780.05 499.771 2779.61 500.219 2779.05 500.219H2652.93M2906.2 406.469L2906.44 359.839M2906.69 313.209L2906.44 359.839M2906.44 359.839H3030.85C3031.4 359.839 3031.85 360.287 3031.85 360.839V395.67M2953.01 517.889H3029.38M3202.34 517.889H3156.02M3156.02 517.889V566.973M3156.02 517.889H3029.38M3029.38 517.889V596.914M3001.79 611.639H2999.33M2963.36 611.639H2796.81M2642.58 252.836H2639.62M2604.14 252.836H2546M2655.88 688.7V718.641M2689.39 688.7V690.664M2734.72 688.7H2779.55C2780.1 688.7 2780.55 689.148 2780.55 689.7V751.527M3046.14 685.264V753M3279.7 609.185V611.639M3279.7 645.507V689.191M3279.7 752.509V689.191M3279.7 689.191H3342.77M3388.6 689.191H3390.57M3422.1 689.191V752.509M3232.4 517.889H3235.35M3299.9 472.732V500.691C3299.9 501.243 3300.35 501.691 3300.9 501.691H3422.1M3203.82 252.836H3281.66C3282.21 252.836 3282.66 252.389 3282.66 251.836V172.339M3252.6 157.614H3249.15M3216.63 157.614H3031.85M3031.85 130.127L3033.33 4.96335M3296.45 3V82.4974C3296.45 83.0497 3296.9 83.4974 3297.45 83.4974H3328.48M3357.55 83.4974H3381.21M3407.32 83.4974H3409.78M3432.94 252.836H3435.9M3464.97 252.836H3531" stroke="#362031" stroke-width="14" stroke-linecap="round"/>
<path d="M1238.99 -0.0510471V74.6387C1238.99 75.191 1238.55 75.6387 1237.99 75.6387H1208.42M1179.33 75.6387H1157.14M1128.54 75.6387H1126.07M1445.11 247.17H1443.14M1408.62 247.17H1365.23M1255.76 247.17H1365.23M1365.23 247.17V199.003M1238.5 264.372V329.74M1238.5 355.789V357.755M1238.5 452.122V493.882C1238.5 494.434 1238.05 494.882 1237.5 494.882H1111.28M1364.74 401.007L1364.98 354.315M1365.23 307.623L1364.98 354.315M1364.98 354.315H1489.48C1490.03 354.315 1490.48 354.763 1490.48 355.315V390.194M1411.58 512.575H1488.01M1661.1 512.575H1614.74M1614.74 512.575V561.724M1614.74 512.575H1488.01M1488.01 512.575V591.706M1460.4 606.45H1457.93M1421.94 606.45H1255.27M1100.92 247.17H1097.96M1062.46 247.17H1004.27M1114.24 683.615V713.596M1147.77 683.615V685.581M1191.65 606.45H989C988.448 606.45 988 606.898 988 607.45V680.174M1504.78 680.174V748M1738.51 603.993V606.45M1738.51 640.363V684.106M1738.51 747.509V684.106M1738.51 684.106H1801.63M1847.49 684.106H1849.46M1881.02 684.106V747.509M1691.18 512.575H1694.13M1758.73 467.358V495.356C1758.73 495.908 1759.18 496.356 1759.73 496.356H1881.02M1662.57 247.17H1740.47C1741.02 247.17 1741.47 246.722 1741.47 246.17V166.565M1711.39 151.82H1707.94M1675.4 151.82H1490.48M1490.48 124.296L1491.96 -1.03403M1755.28 -3V76.6047C1755.28 77.157 1755.73 77.6047 1756.28 77.6047H1787.33M1816.43 77.6047H1840.09M1866.23 77.6047H1868.69M1891.87 247.17H1894.83M1923.92 247.17H1990" stroke="#362031" stroke-width="14" stroke-linecap="round"/>
<path d="M3781 6V80.6212C3781 81.1735 3780.55 81.6212 3780 81.6212H3750.55M3721.57 81.6212H3699.47M3670.98 81.6212H3668.52M3780.51 270.183V335.492M3780.51 361.518V363.482M3780.51 457.763V499.484C3780.51 500.036 3780.06 500.484 3779.51 500.484H3653.79M3643.48 252.997H3640.53M3605.17 252.997H3547.21M3656.74 689.046V719M3690.14 689.046V691.01M3733.85 611.952H3532C3531.45 611.952 3531 612.4 3531 612.952V685.609" stroke="#362031" stroke-width="14" stroke-linecap="round"/>
<path d="M2223.91 -0.0151216V74.8205C2223.91 75.3728 2223.46 75.8205 2222.91 75.8205H2193.44M2164.45 75.8205H2142.34M2113.83 75.8205H2111.38M2429.32 247.682H2427.35M2392.95 247.682H2349.71M2240.62 247.682H2349.71M2349.71 247.682V199.423M2223.42 264.917V330.412M2223.42 356.511V358.481M2223.42 453.029V494.871C2223.42 495.423 2222.97 495.871 2222.42 495.871H2096.63M2349.22 401.815L2349.46 355.034M2349.71 308.252L2349.46 355.034M2349.46 355.034H2473.53C2474.08 355.034 2474.53 355.481 2474.53 356.034V390.982M2395.9 513.599H2471.07C2471.62 513.599 2472.07 514.047 2472.07 514.599V592.882M2444.55 607.655H2442.09M2406.22 607.655H2240.13M2086.32 247.682H2083.37M2047.99 247.682H1990M2099.58 684.968V715.007M2133 684.968V686.938M2178.21 684.968H2222.91C2223.46 684.968 2223.91 685.415 2223.91 685.968V748M2474.53 124.572L2476 -1" stroke="#362031" stroke-width="14" stroke-linecap="round"/>
<path d="M238.309 808.961V883.953C238.309 884.505 237.861 884.953 237.309 884.953H207.79M178.747 884.953H156.596M128.046 884.953H125.585M444.068 1057.17H442.099M407.642 1057.17H364.324M255.045 1057.17H364.324M364.324 1057.17V1008.81M237.817 1074.44V1140.07M237.817 1166.22V1168.2M364.078 1183V1164.74M364.324 1117.86L364.078 1164.74M364.078 1164.74H488.355C488.907 1164.74 489.355 1165.19 489.355 1165.74V1183M100.48 1057.17H97.5268M62.085 1057.17H4M661.149 1057.17H738.908C739.46 1057.17 739.908 1056.72 739.908 1056.17V976.242M709.881 961.438H706.435M673.947 961.438H489.355M489.355 933.805L490.831 807.974M753.691 806V885.927C753.691 886.479 754.138 886.927 754.691 886.927H785.687M814.729 886.927H838.357M864.446 886.927H866.907M890.043 1057.17H892.996M922.039 1057.17H988" stroke="#362031" stroke-width="14" stroke-linecap="round"/>
<path d="M2780.55 814.953V889.743C2780.55 890.296 2780.1 890.743 2779.55 890.743H2750M2720.92 890.743H2698.75M2670.17 890.743H2667.71M2986.52 1062.5H2984.54M2950.05 1062.5H2906.69M2797.3 1062.5H2906.69M2906.69 1062.5V1014.27M2780.05 1079.73V1145.18M2780.05 1171.27V1173.24M2906.44 1188V1169.79M2906.69 1123.04L2906.44 1169.79M2906.44 1169.79H3030.85C3031.4 1169.79 3031.85 1170.24 3031.85 1170.79V1188M2642.58 1062.5H2639.62M2604.14 1062.5H2546M3203.82 1062.5H3281.66C3282.21 1062.5 3282.66 1062.05 3282.66 1061.5V981.791M3252.6 967.026H3249.15M3216.63 967.026H3031.85M3031.85 939.466L3033.33 813.969M3296.45 812V891.712C3296.45 892.264 3296.9 892.712 3297.45 892.712H3328.48M3357.55 892.712H3381.21M3407.32 892.712H3409.78M3432.94 1062.5H3435.9M3464.97 1062.5H3531" stroke="#362031" stroke-width="14" stroke-linecap="round"/>
<path d="M1222.31 807.949V882.648C1222.31 883.2 1221.86 883.648 1221.31 883.648H1191.79M1112.05 883.648H1109.58M1428.07 1055.2H1426.1M1391.64 1055.2H1348.32M1239.05 1055.2H1348.32M1348.32 1055.2V1007.03M1221.82 1072.4V1137.78M1221.82 1163.83V1165.8M1348.08 1183V1162.36M1348.32 1115.66L1348.08 1162.36M1348.08 1162.36H1472.35C1472.91 1162.36 1473.35 1162.8 1473.35 1163.36V1183M1084.48 1055.2H1081.53M1046.09 1055.2H988M1645.15 1055.2H1722.91C1723.46 1055.2 1723.91 1054.75 1723.91 1054.2V974.584M1693.88 959.837H1690.44M1657.95 959.837H1473.35M1473.35 932.311L1474.83 806.966M1737.69 805V884.614C1737.69 885.166 1738.14 885.614 1738.69 885.614H1769.69M1798.73 885.614H1822.36M1848.45 885.614H1850.91M1874.04 1055.2H1877M1906.04 1055.2H1972" stroke="#362031" stroke-width="14" stroke-linecap="round"/>
<path d="M3765 813V887.731C3765 888.283 3764.55 888.731 3764 888.731H3734.52M3654.88 888.731H3652.42M3764.51 1077.57V1142.97M3764.51 1169.03V1171M3627.35 1060.35H3624.4M3589.01 1060.35H3531" stroke="#362031" stroke-width="14" stroke-linecap="round"/>
<path d="M2206.39 808.984V883.765C2206.39 884.317 2205.94 884.765 2205.39 884.765H2175.86M2146.81 884.765H2124.65M2096.09 884.765H2093.63M2412.22 1056.5H2410.25M2375.78 1056.5H2332.45M2223.13 1056.5H2332.45M2332.45 1056.5V1008.28M2205.9 1073.73V1139.17M2205.9 1165.25V1167.22M2332.45 1181L2332.2 1163.78M2332.45 1117.03L2332.2 1163.78M2332.2 1163.78H2456.6C2457.12 1163.78 2457.56 1164.17 2457.6 1164.69L2459 1181M2068.51 1056.5H2065.56M2030.11 1056.5H1972M2457.52 933.482L2459 808" stroke="#362031" stroke-width="14" stroke-linecap="round"/>
<path d="M2142.31 1244.95V1319.53C2142.31 1320.09 2141.86 1320.53 2141.31 1320.53H2111.79M2082.75 1320.53H2060.6M2032.05 1320.53H2029.58M2348.07 1491.84H2346.1M2311.64 1491.84H2268.32M2159.05 1491.84H2268.32M2268.32 1491.84V1443.73M2141.82 1509.02V1574.3M2141.82 1600.31V1602.27M2141.82 1696.52V1738.22C2141.82 1738.77 2141.37 1739.22 2140.82 1739.22H2014.82M2267.83 1645.47L2268.08 1598.84M2268.32 1552.21L2268.08 1598.84M2268.08 1598.84H2392.35C2392.91 1598.84 2393.35 1599.29 2393.35 1599.84V1634.67M2314.6 1756.89H2390.89M2563.67 1756.89H2517.4M2517.4 1756.89V1805.97M2517.4 1756.89H2390.89M2390.89 1756.89V1835.91M2363.33 1850.64H2360.87M2324.93 1850.64H2158.55M2004.48 1491.84H2001.53M1966.09 1491.84H1908M2017.77 1927.7V1957.64M2051.24 1927.7V1929.66M2096.53 1927.7H2141.31C2141.86 1927.7 2142.31 1928.15 2142.31 1928.7V1990.53M2407.63 1924.26V1992M2640.95 1848.18V1850.64M2640.95 1884.51V1928.19M2640.95 1991.51V1928.19M2640.95 1928.19H2703.96M2749.74 1928.19H2751.71M2783.21 1928.19V1991.51M2593.7 1756.89H2596.65M2661.14 1711.73V1739.69C2661.14 1740.24 2661.58 1740.69 2662.14 1740.69H2783.21M2565.15 1491.84H2642.91C2643.46 1491.84 2643.91 1491.39 2643.91 1490.84V1411.34M2613.88 1396.61H2610.44M2577.95 1396.61H2393.35M2393.35 1369.13L2394.83 1243.96M2657.69 1242V1321.5C2657.69 1322.05 2658.14 1322.5 2658.69 1322.5H2689.69M2718.73 1322.5H2742.36M2768.45 1322.5H2770.91M2794.04 1491.84H2797M2826.04 1491.84H2892" stroke="#362031" stroke-width="14" stroke-linecap="round"/>
<path d="M74.3206 1758.23H29C28.4477 1758.23 28 1758.67 28 1759.23V1807.34M151.686 1849.58V1852.04M151.686 1885.93V1929.64M151.686 1993V1929.64M151.686 1929.64H214.761M260.589 1929.64H262.56M294.097 1929.64V1993M104.38 1758.23H107.336M171.89 1713.04V1741.02C171.89 1741.57 172.337 1742.02 172.89 1742.02H294.097M75.7989 1493H153.643C154.195 1493 154.643 1492.55 154.643 1492V1412.45M124.583 1397.72H121.134M168.44 1243V1322.55C168.44 1323.1 168.888 1323.55 169.44 1323.55H200.47M229.544 1323.55H253.197M279.314 1323.55H281.778M304.938 1493H307.895M336.968 1493H403" stroke="#362031" stroke-width="14" stroke-linecap="round"/>
<path d="M3142.76 1244.95V1319.53C3142.76 1320.09 3142.32 1320.53 3141.76 1320.53H3112.22M3083.15 1320.53H3060.98M3032.41 1320.53H3029.94M3348.69 1491.84H3346.72M3312.24 1491.84H3268.88M3159.51 1491.84H3268.88M3268.88 1491.84V1443.73M3142.27 1509.02V1574.3M3142.27 1600.31V1602.27M3142.27 1696.52V1738.22C3142.27 1738.77 3141.82 1739.22 3141.27 1739.22H3015.16M3268.39 1645.47L3268.64 1598.84M3268.88 1552.21L3268.64 1598.84M3268.64 1598.84H3393.02C3393.57 1598.84 3394.02 1599.29 3394.02 1599.84V1634.67M3315.19 1756.89H3391.56M3564.48 1756.89H3518.17M3518.17 1756.89V1805.97M3518.17 1756.89H3391.56M3391.56 1756.89V1835.91M3363.97 1850.64H3361.5M3325.54 1850.64H3159.02M3004.82 1491.84H3001.86M2966.39 1491.84H2908.26M3018.12 1927.7V1957.64M3051.62 1927.7V1929.66M3095.47 1850.64H2893C2892.45 1850.64 2892 1851.09 2892 1851.64V1924.26M3408.31 1924.26V1992M3641.83 1848.18V1850.64M3641.83 1884.51V1928.19M3641.83 1991.51V1928.19M3641.83 1928.19H3704.89M3750.7 1928.19H3752.68M3784.21 1928.19V1991.51M3594.53 1756.89H3597.49M3662.03 1711.73V1739.69C3662.03 1740.24 3662.47 1740.69 3663.03 1740.69H3784.21M3565.96 1491.84H3643.78C3644.34 1491.84 3644.78 1491.39 3644.78 1490.84V1411.34M3614.73 1396.61H3611.28M3578.77 1396.61H3394.02M3394.02 1369.13L3395.5 1243.96M3658.58 1242V1321.5C3658.58 1322.05 3659.03 1322.5 3659.58 1322.5H3690.6M3719.67 1322.5H3743.31M3769.43 1322.5H3771.89M3795.04 1491.84H3798" stroke="#362031" stroke-width="14" stroke-linecap="round"/>
<path d="M653.743 1245.95V1320.64C653.743 1321.19 653.295 1321.64 652.743 1321.64H623.2M594.136 1321.64H571.968M543.396 1321.64H540.933M859.657 1493.17H857.687M823.203 1493.17H779.853M670.492 1493.17H779.853M779.853 1493.17V1445M653.25 1510.37V1575.74M653.25 1601.79V1603.76M653.25 1698.12V1739.88C653.25 1740.43 652.802 1740.88 652.25 1740.88H526.155M779.36 1647.01L779.607 1600.31M779.853 1553.62L779.607 1600.31M779.607 1600.31H903.978C904.53 1600.31 904.978 1600.76 904.978 1601.31V1636.19M826.159 1758.58H902.515M1075.42 1758.58H1029.12M1029.12 1758.58V1807.72M1029.12 1758.58H902.515M902.515 1758.58V1837.71M874.928 1852.45H872.465M836.504 1852.45H669.999M515.81 1493.17H512.854M477.385 1493.17H419.256M529.11 1929.61V1959.6M562.608 1929.61V1931.58M606.451 1852.45H404C403.448 1852.45 403 1852.9 403 1853.45V1926.17M919.264 1926.17V1994M1152.76 1849.99V1852.45M1152.76 1886.36V1930.11M1152.76 1993.51V1930.11M1152.76 1930.11H1215.82M1261.63 1930.11H1263.6M1295.13 1930.11V1993.51M1105.47 1758.58H1108.43M1172.96 1713.36V1741.36C1172.96 1741.91 1173.41 1742.36 1173.96 1742.36H1295.13M1076.9 1493.17H1154.72C1155.27 1493.17 1155.72 1492.72 1155.72 1492.17V1412.56M1125.67 1397.82H1122.22M1089.71 1397.82H904.978M904.978 1370.3L906.456 1244.97M1169.51 1243V1322.6C1169.51 1323.16 1169.96 1323.6 1170.51 1323.6H1201.53M1230.6 1323.6H1254.24M1280.35 1323.6H1282.82M1305.97 1493.17H1308.92M1337.99 1493.17H1404" stroke="#362031" stroke-width="14" stroke-linecap="round"/>
<path d="M1638.39 1245.98V1320.82C1638.39 1321.37 1637.94 1321.82 1637.39 1321.82H1607.86M1578.81 1321.82H1556.65M1528.09 1321.82H1525.63M1844.22 1493.68H1842.25M1807.78 1493.68H1764.45M1655.13 1493.68H1764.45M1764.45 1493.68V1445.42M1637.9 1510.92V1576.41M1637.9 1602.51V1604.48M1637.9 1699.03V1740.87C1637.9 1741.42 1637.45 1741.87 1636.9 1741.87H1510.85M1763.96 1647.82L1764.2 1601.03M1764.45 1554.25L1764.2 1601.03M1764.2 1601.03H1888.52C1889.08 1601.03 1889.52 1601.48 1889.52 1602.03V1636.98M1810.74 1759.6H1886.06C1886.61 1759.6 1887.06 1760.05 1887.06 1760.6V1838.88M1859.49 1853.65H1857.02M1821.08 1853.65H1654.64M1500.51 1493.68H1497.56M1462.11 1493.68H1404M1513.81 1930.97V1961.01M1547.29 1930.97V1932.94M1592.6 1930.97H1637.39C1637.94 1930.97 1638.39 1931.42 1638.39 1931.97V1994M1889.52 1370.57L1891 1245" stroke="#362031" stroke-width="14" stroke-linecap="round"/>
<path d="M2141.83 2053.95V2128.73C2141.83 2129.28 2141.38 2129.73 2140.83 2129.73H2111.28M2082.21 2129.73H2060.04M2031.46 2129.73H2029M2613.83 2206H2610.38M2577.86 2206H2393.1M2393.1 2178.44L2394.58 2052.97M2657.68 2051V2130.7C2657.68 2131.25 2658.13 2131.7 2658.68 2131.7H2689.71M2718.77 2131.7H2742.42M2768.54 2131.7H2771" stroke="#362031" stroke-width="14" stroke-linecap="round"/>
<path d="M124.457 2208H121M168.411 2053V2132.7C168.411 2133.25 168.859 2133.7 169.411 2133.7H200.512M229.65 2133.7H253.356M279.531 2133.7H282" stroke="#362031" stroke-width="14" stroke-linecap="round"/>
<path d="M3126.68 2051.95V2126.73C3126.68 2127.28 3126.23 2127.73 3125.68 2127.73H3096.17M3016.46 2127.73H3014M3598.04 2204H3594.6M3562.12 2204H3377.61M3377.61 2176.44L3379.09 2050.97M3641.83 2049V2128.7C3641.83 2129.25 3642.28 2129.7 3642.83 2129.7H3673.81M3702.84 2129.7H3726.46M3752.54 2129.7H3755" stroke="#362031" stroke-width="14" stroke-linecap="round"/>
<path d="M637.675 2053.95V2128.73C637.675 2129.28 637.228 2129.73 636.675 2129.73H607.169M527.46 2129.73H525M1109.04 2206H1105.6M1073.12 2206H888.612M888.612 2178.44L890.088 2052.97M1152.83 2051V2130.7C1152.83 2131.25 1153.28 2131.7 1153.83 2131.7H1184.81M1213.84 2131.7H1237.46M1263.54 2131.7H1266" stroke="#362031" stroke-width="14" stroke-linecap="round"/>
<path d="M1621.65 2055.98V2130.47C1621.65 2131.02 1621.2 2131.47 1620.65 2131.47H1591.15M1562.13 2131.47H1539.99M1511.46 2131.47H1509M1872.52 2180L1874 2055" stroke="#362031" stroke-width="14" stroke-linecap="round"/>
</g>
<defs>
<filter id="filter0_d_2_17" x="0" y="0" width="3807" height="2276" filterUnits="userSpaceOnUse" color-interpolation-filters="sRGB">
<feFlood flood-opacity="0" result="BackgroundImageFix"/>
<feColorMatrix in="SourceAlpha" type="matrix" values="0 0 0 0 0 0 0 0 0 0 0 0 0 0 0 0 0 0 127 0" result="hardAlpha"/>
<feOffset dy="4"/>
<feGaussianBlur stdDeviation="2"/>
<feComposite in2="hardAlpha" operator="out"/>
<feColorMatrix type="matrix" values="0 0 0 0 0 0 0 0 0 0 0 0 0 0 0 0 0 0 0.25 0"/>
<feBlend mode="normal" in2="BackgroundImageFix" result="effect1_dropShadow_2_17"/>
<feBlend mode="normal" in="SourceGraphic" in2="effect1_dropShadow_2_17" result="shape"/>
</filter>
<clipPath id="clip0_2_17">
<rect width="3799" height="2268" fill="white" transform="translate(4)"/>
</clipPath>
</defs>
</svg>
