<svg width="180" height="111" viewBox="0 0 180 111" fill="none" xmlns="http://www.w3.org/2000/svg">
<rect width="180" height="10" fill="#3C1C3B"/>
<rect y="50" width="180" height="10" fill="#3C1C3B"/>
<rect y="10" width="10" height="10" fill="#3C1C3B"/>
<rect x="10" y="10" width="30" height="10" fill="#674349"/>
<rect y="20" width="40" height="30" fill="#623F45"/>
<rect x="70" y="20" width="100" height="30" fill="#623F45"/>
<rect x="40" y="20" width="10" height="30" fill="#674349"/>
<rect x="160" y="20" width="10" height="30" fill="#674349"/>
<rect x="60" y="20" width="10" height="30" fill="#674349"/>
<rect x="70" y="10" width="90" height="10" fill="#674349"/>
<rect x="40" y="10" width="10" height="10" fill="#3C1C3B"/>
<rect x="60" y="10" width="10" height="10" fill="#3C1C3B"/>
<rect x="160" y="60" width="10" height="10" fill="#4B3449"/>
<rect x="160" y="70" width="10" height="10" fill="#4B3449"/>
<rect x="160" y="90" width="10" height="10" fill="#4B3449"/>
<rect x="140" y="90" width="10" height="10" fill="#4B3449"/>
<rect x="130" y="90" width="10" height="10" fill="#4B3449"/>
<rect x="120" y="90" width="10" height="10" fill="#4B3449"/>
<rect x="110" y="80" width="10" height="10" fill="#4B3449"/>
<rect x="100" y="90" width="10" height="10" fill="#4B3449"/>
<rect x="80" y="90" width="10" height="10" fill="#4B3449"/>
<rect x="70" y="90" width="10" height="10" fill="#4B3449"/>
<rect x="60" y="90" width="10" height="10" fill="#4B3449"/>
<rect x="40" y="100" width="10" height="10" fill="#4B3449"/>
<rect x="30" y="90" width="10" height="10" fill="#4B3449"/>
<rect x="8" y="90" width="10" height="10" fill="#4B3449"/>
<rect y="90" width="10" height="10" fill="#4B3449"/>
<rect x="40" y="80" width="10" height="10" fill="#4B3449"/>
<rect x="40" y="70" width="10" height="10" fill="#4B3449"/>
<rect x="30" y="70" width="10" height="10" fill="#4B3449"/>
<rect x="20" y="60" width="40" height="10" fill="#4B3449"/>
<rect x="160" y="10" width="10" height="10" fill="#3C1C3B"/>
<rect x="50" y="10" width="10" height="50" fill="#3C1C3B"/>
<rect x="170" y="10" width="10" height="50" fill="#3C1C3B"/>
</svg>
