<svg width="180" height="170" viewBox="0 0 180 170" fill="none" xmlns="http://www.w3.org/2000/svg">
<g clip-path="url(#clip0_4_514)">
<path d="M10 80H0L0 9.5H10L10 80Z" fill="#3C1C3B"/>
<path d="M10 10V0H180V10H10Z" fill="#3C1C3B"/>
<rect y="80" width="10" height="10" fill="#26141C"/>
<rect y="110" width="10" height="10" fill="#2A171E"/>
<rect y="140" width="10" height="10" fill="#2A171E"/>
<rect y="150" width="10" height="10" fill="#2A171E"/>
<rect x="10" y="140" width="170" height="30" fill="#563841"/>
<rect x="10" y="90" width="70" height="30" fill="#56384F"/>
<rect x="90" y="90" width="90" height="30" fill="#563848"/>
<rect x="10" y="120" width="70" height="10" fill="#432139"/>
<rect x="90" y="120" width="90" height="10" fill="#432139"/>
<rect x="10" y="50" width="170" height="30" fill="#462C34"/>
<rect x="10" y="10" width="170" height="30" fill="#70484F"/>
<rect x="10" y="40" width="170" height="10" fill="#5F3E45"/>
<rect y="160" width="10" height="10" fill="#2A171E"/>
<rect x="80" y="120" width="10" height="10" fill="#2A171E"/>
<rect x="80" y="110" width="10" height="10" fill="#2A171E"/>
<rect x="30" y="130" width="130" height="10" fill="#2A171E"/>
<rect y="90" width="10" height="10" fill="#3C1C3B"/>
<rect y="100" width="10" height="10" fill="#3C1C3B"/>
<rect y="120" width="10" height="10" fill="#3C1C3B"/>
<rect x="10" y="130" width="10" height="10" fill="#3C1C3B"/>
<rect x="80" y="100" width="10" height="10" fill="#3C1C3B"/>
<rect x="80" y="90" width="10" height="10" fill="#3C1C3B"/>
<rect x="10" y="80" width="170" height="10" fill="#3C1C3B"/>
<rect x="20" y="130" width="10" height="10" fill="#3C1C3B"/>
<rect x="160" y="130" width="10" height="10" fill="#3C1C3B"/>
<rect x="170" y="130" width="10" height="10" fill="#3C1C3B"/>
<rect y="130" width="10" height="10" fill="#3C1C3B"/>
<path d="M20 20H10V10H20V20Z" fill="#3C1C3B"/>
</g>
<defs>
<clipPath id="clip0_4_514">
<rect width="180" height="170" fill="white"/>
</clipPath>
</defs>
</svg>
