<svg width="900" height="111" viewBox="0 0 900 111" fill="none" xmlns="http://www.w3.org/2000/svg">
<rect width="180" height="10" fill="#3C1C3B"/>
<rect y="50" width="180" height="10" fill="#3C1C3B"/>
<rect y="10" width="10" height="10" fill="#3C1C3B"/>
<rect x="10" y="10" width="30" height="10" fill="#674349"/>
<rect y="20" width="40" height="30" fill="#623F45"/>
<rect x="70" y="20" width="100" height="30" fill="#623F45"/>
<rect x="40" y="20" width="10" height="30" fill="#674349"/>
<rect x="160" y="20" width="10" height="30" fill="#674349"/>
<rect x="60" y="20" width="10" height="30" fill="#674349"/>
<rect x="70" y="10" width="90" height="10" fill="#674349"/>
<rect x="40" y="10" width="10" height="10" fill="#3C1C3B"/>
<rect x="60" y="10" width="10" height="10" fill="#3C1C3B"/>
<rect x="160" y="60" width="10" height="10" fill="#4B3449"/>
<rect x="160" y="70" width="10" height="10" fill="#4B3449"/>
<rect x="160" y="90" width="10" height="10" fill="#4B3449"/>
<rect x="140" y="90" width="10" height="10" fill="#4B3449"/>
<rect x="130" y="90" width="10" height="10" fill="#4B3449"/>
<rect x="120" y="90" width="10" height="10" fill="#4B3449"/>
<rect x="110" y="80" width="10" height="10" fill="#4B3449"/>
<rect x="100" y="90" width="10" height="10" fill="#4B3449"/>
<rect x="80" y="90" width="10" height="10" fill="#4B3449"/>
<rect x="70" y="90" width="10" height="10" fill="#4B3449"/>
<rect x="60" y="90" width="10" height="10" fill="#4B3449"/>
<rect x="40" y="100" width="10" height="10" fill="#4B3449"/>
<rect x="30" y="90" width="10" height="10" fill="#4B3449"/>
<rect x="8" y="90" width="10" height="10" fill="#4B3449"/>
<rect y="90" width="10" height="10" fill="#4B3449"/>
<rect x="40" y="80" width="10" height="10" fill="#4B3449"/>
<rect x="40" y="70" width="10" height="10" fill="#4B3449"/>
<rect x="30" y="70" width="10" height="10" fill="#4B3449"/>
<rect x="20" y="60" width="40" height="10" fill="#4B3449"/>
<rect x="160" y="10" width="10" height="10" fill="#3C1C3B"/>
<rect x="50" y="10" width="10" height="50" fill="#3C1C3B"/>
<rect x="170" y="10" width="10" height="50" fill="#3C1C3B"/>
<rect x="720" width="180" height="10" fill="#3C1C3B"/>
<rect x="720" y="50" width="180" height="10" fill="#3C1C3B"/>
<rect x="720" y="10" width="10" height="10" fill="#3C1C3B"/>
<rect x="730" y="10" width="30" height="10" fill="#674349"/>
<rect x="720" y="20" width="40" height="30" fill="#623F45"/>
<rect x="790" y="20" width="100" height="30" fill="#623F45"/>
<rect x="760" y="20" width="10" height="30" fill="#674349"/>
<rect x="880" y="20" width="10" height="30" fill="#674349"/>
<rect x="780" y="20" width="10" height="30" fill="#674349"/>
<rect x="790" y="10" width="90" height="10" fill="#674349"/>
<rect x="760" y="10" width="10" height="10" fill="#3C1C3B"/>
<rect x="780" y="10" width="10" height="10" fill="#3C1C3B"/>
<rect x="880" y="60" width="10" height="10" fill="#4B3449"/>
<rect x="880" y="70" width="10" height="10" fill="#4B3449"/>
<rect x="880" y="90" width="10" height="10" fill="#4B3449"/>
<rect x="860" y="90" width="10" height="10" fill="#4B3449"/>
<rect x="850" y="90" width="10" height="10" fill="#4B3449"/>
<rect x="840" y="90" width="10" height="10" fill="#4B3449"/>
<rect x="830" y="80" width="10" height="10" fill="#4B3449"/>
<rect x="820" y="90" width="10" height="10" fill="#4B3449"/>
<rect x="800" y="90" width="10" height="10" fill="#4B3449"/>
<rect x="790" y="90" width="10" height="10" fill="#4B3449"/>
<rect x="780" y="90" width="10" height="10" fill="#4B3449"/>
<rect x="760" y="100" width="10" height="10" fill="#4B3449"/>
<rect x="750" y="90" width="10" height="10" fill="#4B3449"/>
<rect x="728" y="90" width="10" height="10" fill="#4B3449"/>
<rect x="720" y="90" width="10" height="10" fill="#4B3449"/>
<rect x="760" y="80" width="10" height="10" fill="#4B3449"/>
<rect x="760" y="70" width="10" height="10" fill="#4B3449"/>
<rect x="750" y="70" width="10" height="10" fill="#4B3449"/>
<rect x="740" y="60" width="40" height="10" fill="#4B3449"/>
<rect x="880" y="10" width="10" height="10" fill="#3C1C3B"/>
<rect x="770" y="10" width="10" height="50" fill="#3C1C3B"/>
<rect x="890" y="10" width="10" height="50" fill="#3C1C3B"/>
<rect x="180" width="180" height="10" fill="#3C1C3B"/>
<rect x="180" y="50" width="180" height="10" fill="#3C1C3B"/>
<rect x="180" y="10" width="10" height="10" fill="#3C1C3B"/>
<rect x="190" y="10" width="30" height="10" fill="#674349"/>
<rect x="180" y="20" width="40" height="30" fill="#623F45"/>
<rect x="250" y="20" width="100" height="30" fill="#623F45"/>
<rect x="220" y="20" width="10" height="30" fill="#674349"/>
<rect x="340" y="20" width="10" height="30" fill="#674349"/>
<rect x="240" y="20" width="10" height="30" fill="#674349"/>
<rect x="250" y="10" width="90" height="10" fill="#674349"/>
<rect x="220" y="10" width="10" height="10" fill="#3C1C3B"/>
<rect x="240" y="10" width="10" height="10" fill="#3C1C3B"/>
<rect x="340" y="60" width="10" height="10" fill="#4B3449"/>
<rect x="340" y="70" width="10" height="10" fill="#4B3449"/>
<rect x="340" y="90" width="10" height="10" fill="#4B3449"/>
<rect x="320" y="90" width="10" height="10" fill="#4B3449"/>
<rect x="310" y="90" width="10" height="10" fill="#4B3449"/>
<rect x="300" y="90" width="10" height="10" fill="#4B3449"/>
<rect x="290" y="80" width="10" height="10" fill="#4B3449"/>
<rect x="280" y="90" width="10" height="10" fill="#4B3449"/>
<rect x="260" y="90" width="10" height="10" fill="#4B3449"/>
<rect x="250" y="90" width="10" height="10" fill="#4B3449"/>
<rect x="240" y="90" width="10" height="10" fill="#4B3449"/>
<rect x="220" y="100" width="10" height="10" fill="#4B3449"/>
<rect x="210" y="90" width="10" height="10" fill="#4B3449"/>
<rect x="188" y="90" width="10" height="10" fill="#4B3449"/>
<rect x="180" y="90" width="10" height="10" fill="#4B3449"/>
<rect x="220" y="80" width="10" height="10" fill="#4B3449"/>
<rect x="220" y="70" width="10" height="10" fill="#4B3449"/>
<rect x="210" y="70" width="10" height="10" fill="#4B3449"/>
<rect x="200" y="60" width="40" height="10" fill="#4B3449"/>
<rect x="340" y="10" width="10" height="10" fill="#3C1C3B"/>
<rect x="230" y="10" width="10" height="50" fill="#3C1C3B"/>
<rect x="350" y="10" width="10" height="50" fill="#3C1C3B"/>
<rect x="360" width="180" height="10" fill="#3C1C3B"/>
<rect x="360" y="50" width="180" height="10" fill="#3C1C3B"/>
<rect x="360" y="10" width="10" height="10" fill="#3C1C3B"/>
<rect x="370" y="10" width="30" height="10" fill="#674349"/>
<rect x="360" y="20" width="40" height="30" fill="#623F45"/>
<rect x="430" y="20" width="100" height="30" fill="#623F45"/>
<rect x="400" y="20" width="10" height="30" fill="#674349"/>
<rect x="520" y="20" width="10" height="30" fill="#674349"/>
<rect x="420" y="20" width="10" height="30" fill="#674349"/>
<rect x="430" y="10" width="90" height="10" fill="#674349"/>
<rect x="400" y="10" width="10" height="10" fill="#3C1C3B"/>
<rect x="420" y="10" width="10" height="10" fill="#3C1C3B"/>
<rect x="520" y="60" width="10" height="10" fill="#4B3449"/>
<rect x="520" y="70" width="10" height="10" fill="#4B3449"/>
<rect x="520" y="90" width="10" height="10" fill="#4B3449"/>
<rect x="500" y="90" width="10" height="10" fill="#4B3449"/>
<rect x="490" y="90" width="10" height="10" fill="#4B3449"/>
<rect x="480" y="90" width="10" height="10" fill="#4B3449"/>
<rect x="470" y="80" width="10" height="10" fill="#4B3449"/>
<rect x="460" y="90" width="10" height="10" fill="#4B3449"/>
<rect x="440" y="90" width="10" height="10" fill="#4B3449"/>
<rect x="430" y="90" width="10" height="10" fill="#4B3449"/>
<rect x="420" y="90" width="10" height="10" fill="#4B3449"/>
<rect x="400" y="100" width="10" height="10" fill="#4B3449"/>
<rect x="390" y="90" width="10" height="10" fill="#4B3449"/>
<rect x="368" y="90" width="10" height="10" fill="#4B3449"/>
<rect x="360" y="90" width="10" height="10" fill="#4B3449"/>
<rect x="400" y="80" width="10" height="10" fill="#4B3449"/>
<rect x="400" y="70" width="10" height="10" fill="#4B3449"/>
<rect x="390" y="70" width="10" height="10" fill="#4B3449"/>
<rect x="380" y="60" width="40" height="10" fill="#4B3449"/>
<rect x="520" y="10" width="10" height="10" fill="#3C1C3B"/>
<rect x="410" y="10" width="10" height="50" fill="#3C1C3B"/>
<rect x="530" y="10" width="10" height="50" fill="#3C1C3B"/>
<rect x="540" width="180" height="10" fill="#3C1C3B"/>
<rect x="540" y="50" width="180" height="10" fill="#3C1C3B"/>
<rect x="540" y="10" width="10" height="10" fill="#3C1C3B"/>
<rect x="550" y="10" width="30" height="10" fill="#674349"/>
<rect x="540" y="20" width="40" height="30" fill="#623F45"/>
<rect x="610" y="20" width="100" height="30" fill="#623F45"/>
<rect x="580" y="20" width="10" height="30" fill="#674349"/>
<rect x="700" y="20" width="10" height="30" fill="#674349"/>
<rect x="600" y="20" width="10" height="30" fill="#674349"/>
<rect x="610" y="10" width="90" height="10" fill="#674349"/>
<rect x="580" y="10" width="10" height="10" fill="#3C1C3B"/>
<rect x="600" y="10" width="10" height="10" fill="#3C1C3B"/>
<rect x="700" y="60" width="10" height="10" fill="#4B3449"/>
<rect x="700" y="70" width="10" height="10" fill="#4B3449"/>
<rect x="700" y="90" width="10" height="10" fill="#4B3449"/>
<rect x="680" y="90" width="10" height="10" fill="#4B3449"/>
<rect x="670" y="90" width="10" height="10" fill="#4B3449"/>
<rect x="660" y="90" width="10" height="10" fill="#4B3449"/>
<rect x="650" y="80" width="10" height="10" fill="#4B3449"/>
<rect x="640" y="90" width="10" height="10" fill="#4B3449"/>
<rect x="620" y="90" width="10" height="10" fill="#4B3449"/>
<rect x="610" y="90" width="10" height="10" fill="#4B3449"/>
<rect x="600" y="90" width="10" height="10" fill="#4B3449"/>
<rect x="580" y="100" width="10" height="10" fill="#4B3449"/>
<rect x="570" y="90" width="10" height="10" fill="#4B3449"/>
<rect x="548" y="90" width="10" height="10" fill="#4B3449"/>
<rect x="540" y="90" width="10" height="10" fill="#4B3449"/>
<rect x="580" y="80" width="10" height="10" fill="#4B3449"/>
<rect x="580" y="70" width="10" height="10" fill="#4B3449"/>
<rect x="570" y="70" width="10" height="10" fill="#4B3449"/>
<rect x="560" y="60" width="40" height="10" fill="#4B3449"/>
<rect x="700" y="10" width="10" height="10" fill="#3C1C3B"/>
<rect x="590" y="10" width="10" height="50" fill="#3C1C3B"/>
<rect x="710" y="10" width="10" height="50" fill="#3C1C3B"/>
</svg>
