<svg width="1080" height="170" viewBox="0 0 1080 170" fill="none" xmlns="http://www.w3.org/2000/svg">
<g clip-path="url(#clip0_9_2977)">
<path d="M910 80H900V9.5H910V80Z" fill="#3C1C3B"/>
<path d="M910 10V0H1080V10H910Z" fill="#3C1C3B"/>
<rect x="900" y="80" width="10" height="10" fill="#26141C"/>
<rect x="900" y="110" width="10" height="10" fill="#2A171E"/>
<rect x="900" y="140" width="10" height="10" fill="#2A171E"/>
<rect x="900" y="150" width="10" height="10" fill="#2A171E"/>
<rect x="910" y="140" width="170" height="30" fill="#563841"/>
<rect x="910" y="90" width="70" height="30" fill="#56384F"/>
<rect x="990" y="90" width="90" height="30" fill="#563848"/>
<rect x="910" y="120" width="70" height="10" fill="#432139"/>
<rect x="990" y="120" width="90" height="10" fill="#432139"/>
<rect x="910" y="50" width="170" height="30" fill="#462C34"/>
<rect x="910" y="10" width="170" height="30" fill="#70484F"/>
<rect x="910" y="40" width="170" height="10" fill="#5F3E45"/>
<rect x="900" y="160" width="10" height="10" fill="#2A171E"/>
<rect x="980" y="120" width="10" height="10" fill="#2A171E"/>
<rect x="980" y="110" width="10" height="10" fill="#2A171E"/>
<rect x="930" y="130" width="130" height="10" fill="#2A171E"/>
<rect x="900" y="90" width="10" height="10" fill="#3C1C3B"/>
<rect x="900" y="100" width="10" height="10" fill="#3C1C3B"/>
<rect x="900" y="120" width="10" height="10" fill="#3C1C3B"/>
<rect x="910" y="130" width="10" height="10" fill="#3C1C3B"/>
<rect x="980" y="100" width="10" height="10" fill="#3C1C3B"/>
<rect x="980" y="90" width="10" height="10" fill="#3C1C3B"/>
<rect x="910" y="80" width="170" height="10" fill="#3C1C3B"/>
<rect x="920" y="130" width="10" height="10" fill="#3C1C3B"/>
<rect x="1060" y="130" width="10" height="10" fill="#3C1C3B"/>
<rect x="1070" y="130" width="10" height="10" fill="#3C1C3B"/>
<rect x="900" y="130" width="10" height="10" fill="#3C1C3B"/>
<path d="M920 20H910V10H920V20Z" fill="#3C1C3B"/>
</g>
<g clip-path="url(#clip1_9_2977)">
<path d="M370 80H360V9.5H370V80Z" fill="#3C1C3B"/>
<path d="M370 10V0H540V10H370Z" fill="#3C1C3B"/>
<rect x="360" y="80" width="10" height="10" fill="#26141C"/>
<rect x="360" y="110" width="10" height="10" fill="#2A171E"/>
<rect x="360" y="140" width="10" height="10" fill="#2A171E"/>
<rect x="360" y="150" width="10" height="10" fill="#2A171E"/>
<rect x="370" y="140" width="170" height="30" fill="#563841"/>
<rect x="370" y="90" width="70" height="30" fill="#56384F"/>
<rect x="450" y="90" width="90" height="30" fill="#563848"/>
<rect x="370" y="120" width="70" height="10" fill="#432139"/>
<rect x="450" y="120" width="90" height="10" fill="#432139"/>
<rect x="370" y="50" width="170" height="30" fill="#462C34"/>
<rect x="370" y="10" width="170" height="30" fill="#70484F"/>
<rect x="370" y="40" width="170" height="10" fill="#5F3E45"/>
<rect x="360" y="160" width="10" height="10" fill="#2A171E"/>
<rect x="440" y="120" width="10" height="10" fill="#2A171E"/>
<rect x="440" y="110" width="10" height="10" fill="#2A171E"/>
<rect x="390" y="130" width="130" height="10" fill="#2A171E"/>
<rect x="360" y="90" width="10" height="10" fill="#3C1C3B"/>
<rect x="360" y="100" width="10" height="10" fill="#3C1C3B"/>
<rect x="360" y="120" width="10" height="10" fill="#3C1C3B"/>
<rect x="370" y="130" width="10" height="10" fill="#3C1C3B"/>
<rect x="440" y="100" width="10" height="10" fill="#3C1C3B"/>
<rect x="440" y="90" width="10" height="10" fill="#3C1C3B"/>
<rect x="370" y="80" width="170" height="10" fill="#3C1C3B"/>
<rect x="380" y="130" width="10" height="10" fill="#3C1C3B"/>
<rect x="520" y="130" width="10" height="10" fill="#3C1C3B"/>
<rect x="530" y="130" width="10" height="10" fill="#3C1C3B"/>
<rect x="360" y="130" width="10" height="10" fill="#3C1C3B"/>
<path d="M380 20H370V10H380V20Z" fill="#3C1C3B"/>
</g>
<g clip-path="url(#clip2_9_2977)">
<path d="M730 80H720V9.5H730V80Z" fill="#3C1C3B"/>
<path d="M730 10V0H900V10H730Z" fill="#3C1C3B"/>
<rect x="720" y="80" width="10" height="10" fill="#26141C"/>
<rect x="720" y="110" width="10" height="10" fill="#2A171E"/>
<rect x="720" y="140" width="10" height="10" fill="#2A171E"/>
<rect x="720" y="150" width="10" height="10" fill="#2A171E"/>
<rect x="730" y="140" width="170" height="30" fill="#563841"/>
<rect x="730" y="90" width="70" height="30" fill="#56384F"/>
<rect x="810" y="90" width="90" height="30" fill="#563848"/>
<rect x="730" y="120" width="70" height="10" fill="#432139"/>
<rect x="810" y="120" width="90" height="10" fill="#432139"/>
<rect x="730" y="50" width="170" height="30" fill="#462C34"/>
<rect x="730" y="10" width="170" height="30" fill="#70484F"/>
<rect x="730" y="40" width="170" height="10" fill="#5F3E45"/>
<rect x="720" y="160" width="10" height="10" fill="#2A171E"/>
<rect x="800" y="120" width="10" height="10" fill="#2A171E"/>
<rect x="800" y="110" width="10" height="10" fill="#2A171E"/>
<rect x="750" y="130" width="130" height="10" fill="#2A171E"/>
<rect x="720" y="90" width="10" height="10" fill="#3C1C3B"/>
<rect x="720" y="100" width="10" height="10" fill="#3C1C3B"/>
<rect x="720" y="120" width="10" height="10" fill="#3C1C3B"/>
<rect x="730" y="130" width="10" height="10" fill="#3C1C3B"/>
<rect x="800" y="100" width="10" height="10" fill="#3C1C3B"/>
<rect x="800" y="90" width="10" height="10" fill="#3C1C3B"/>
<rect x="730" y="80" width="170" height="10" fill="#3C1C3B"/>
<rect x="740" y="130" width="10" height="10" fill="#3C1C3B"/>
<rect x="880" y="130" width="10" height="10" fill="#3C1C3B"/>
<rect x="890" y="130" width="10" height="10" fill="#3C1C3B"/>
<rect x="720" y="130" width="10" height="10" fill="#3C1C3B"/>
<path d="M740 20H730V10H740V20Z" fill="#3C1C3B"/>
</g>
<g clip-path="url(#clip3_9_2977)">
<path d="M190 80H180V9.5H190V80Z" fill="#3C1C3B"/>
<path d="M190 10V0H360V10H190Z" fill="#3C1C3B"/>
<rect x="180" y="80" width="10" height="10" fill="#26141C"/>
<rect x="180" y="110" width="10" height="10" fill="#2A171E"/>
<rect x="180" y="140" width="10" height="10" fill="#2A171E"/>
<rect x="180" y="150" width="10" height="10" fill="#2A171E"/>
<rect x="190" y="140" width="170" height="30" fill="#563841"/>
<rect x="190" y="90" width="70" height="30" fill="#56384F"/>
<rect x="270" y="90" width="90" height="30" fill="#563848"/>
<rect x="190" y="120" width="70" height="10" fill="#432139"/>
<rect x="270" y="120" width="90" height="10" fill="#432139"/>
<rect x="190" y="50" width="170" height="30" fill="#462C34"/>
<rect x="190" y="10" width="170" height="30" fill="#70484F"/>
<rect x="190" y="40" width="170" height="10" fill="#5F3E45"/>
<rect x="180" y="160" width="10" height="10" fill="#2A171E"/>
<rect x="260" y="120" width="10" height="10" fill="#2A171E"/>
<rect x="260" y="110" width="10" height="10" fill="#2A171E"/>
<rect x="210" y="130" width="130" height="10" fill="#2A171E"/>
<rect x="180" y="90" width="10" height="10" fill="#3C1C3B"/>
<rect x="180" y="100" width="10" height="10" fill="#3C1C3B"/>
<rect x="180" y="120" width="10" height="10" fill="#3C1C3B"/>
<rect x="190" y="130" width="10" height="10" fill="#3C1C3B"/>
<rect x="260" y="100" width="10" height="10" fill="#3C1C3B"/>
<rect x="260" y="90" width="10" height="10" fill="#3C1C3B"/>
<rect x="190" y="80" width="170" height="10" fill="#3C1C3B"/>
<rect x="200" y="130" width="10" height="10" fill="#3C1C3B"/>
<rect x="340" y="130" width="10" height="10" fill="#3C1C3B"/>
<rect x="350" y="130" width="10" height="10" fill="#3C1C3B"/>
<rect x="180" y="130" width="10" height="10" fill="#3C1C3B"/>
<path d="M200 20H190V10H200V20Z" fill="#3C1C3B"/>
</g>
<g clip-path="url(#clip4_9_2977)">
<path d="M550 80H540V9.5H550V80Z" fill="#3C1C3B"/>
<path d="M550 10V0H720V10H550Z" fill="#3C1C3B"/>
<rect x="540" y="80" width="10" height="10" fill="#26141C"/>
<rect x="540" y="110" width="10" height="10" fill="#2A171E"/>
<rect x="540" y="140" width="10" height="10" fill="#2A171E"/>
<rect x="540" y="150" width="10" height="10" fill="#2A171E"/>
<rect x="550" y="140" width="170" height="30" fill="#563841"/>
<rect x="550" y="90" width="70" height="30" fill="#56384F"/>
<rect x="630" y="90" width="90" height="30" fill="#563848"/>
<rect x="550" y="120" width="70" height="10" fill="#432139"/>
<rect x="630" y="120" width="90" height="10" fill="#432139"/>
<rect x="550" y="50" width="170" height="30" fill="#462C34"/>
<rect x="550" y="10" width="170" height="30" fill="#70484F"/>
<rect x="550" y="40" width="170" height="10" fill="#5F3E45"/>
<rect x="540" y="160" width="10" height="10" fill="#2A171E"/>
<rect x="620" y="120" width="10" height="10" fill="#2A171E"/>
<rect x="620" y="110" width="10" height="10" fill="#2A171E"/>
<rect x="570" y="130" width="130" height="10" fill="#2A171E"/>
<rect x="540" y="90" width="10" height="10" fill="#3C1C3B"/>
<rect x="540" y="100" width="10" height="10" fill="#3C1C3B"/>
<rect x="540" y="120" width="10" height="10" fill="#3C1C3B"/>
<rect x="550" y="130" width="10" height="10" fill="#3C1C3B"/>
<rect x="620" y="100" width="10" height="10" fill="#3C1C3B"/>
<rect x="620" y="90" width="10" height="10" fill="#3C1C3B"/>
<rect x="550" y="80" width="170" height="10" fill="#3C1C3B"/>
<rect x="560" y="130" width="10" height="10" fill="#3C1C3B"/>
<rect x="700" y="130" width="10" height="10" fill="#3C1C3B"/>
<rect x="710" y="130" width="10" height="10" fill="#3C1C3B"/>
<rect x="540" y="130" width="10" height="10" fill="#3C1C3B"/>
<path d="M560 20H550V10H560V20Z" fill="#3C1C3B"/>
</g>
<g clip-path="url(#clip5_9_2977)">
<path d="M10 80H0L0 9.5H10L10 80Z" fill="#3C1C3B"/>
<path d="M10 10V0H180V10H10Z" fill="#3C1C3B"/>
<rect y="80" width="10" height="10" fill="#26141C"/>
<rect y="110" width="10" height="10" fill="#2A171E"/>
<rect y="140" width="10" height="10" fill="#2A171E"/>
<rect y="150" width="10" height="10" fill="#2A171E"/>
<rect x="10" y="140" width="170" height="30" fill="#563841"/>
<rect x="10" y="90" width="70" height="30" fill="#56384F"/>
<rect x="90" y="90" width="90" height="30" fill="#563848"/>
<rect x="10" y="120" width="70" height="10" fill="#432139"/>
<rect x="90" y="120" width="90" height="10" fill="#432139"/>
<rect x="10" y="50" width="170" height="30" fill="#462C34"/>
<rect x="10" y="10" width="170" height="30" fill="#70484F"/>
<rect x="10" y="40" width="170" height="10" fill="#5F3E45"/>
<rect y="160" width="10" height="10" fill="#2A171E"/>
<rect x="80" y="120" width="10" height="10" fill="#2A171E"/>
<rect x="80" y="110" width="10" height="10" fill="#2A171E"/>
<rect x="30" y="130" width="130" height="10" fill="#2A171E"/>
<rect y="90" width="10" height="10" fill="#3C1C3B"/>
<rect y="100" width="10" height="10" fill="#3C1C3B"/>
<rect y="120" width="10" height="10" fill="#3C1C3B"/>
<rect x="10" y="130" width="10" height="10" fill="#3C1C3B"/>
<rect x="80" y="100" width="10" height="10" fill="#3C1C3B"/>
<rect x="80" y="90" width="10" height="10" fill="#3C1C3B"/>
<rect x="10" y="80" width="170" height="10" fill="#3C1C3B"/>
<rect x="20" y="130" width="10" height="10" fill="#3C1C3B"/>
<rect x="160" y="130" width="10" height="10" fill="#3C1C3B"/>
<rect x="170" y="130" width="10" height="10" fill="#3C1C3B"/>
<rect y="130" width="10" height="10" fill="#3C1C3B"/>
<path d="M20 20H10V10H20V20Z" fill="#3C1C3B"/>
</g>
<defs>
<clipPath id="clip0_9_2977">
<rect width="180" height="170" fill="white" transform="translate(900)"/>
</clipPath>
<clipPath id="clip1_9_2977">
<rect width="180" height="170" fill="white" transform="translate(360)"/>
</clipPath>
<clipPath id="clip2_9_2977">
<rect width="180" height="170" fill="white" transform="translate(720)"/>
</clipPath>
<clipPath id="clip3_9_2977">
<rect width="180" height="170" fill="white" transform="translate(180)"/>
</clipPath>
<clipPath id="clip4_9_2977">
<rect width="180" height="170" fill="white" transform="translate(540)"/>
</clipPath>
<clipPath id="clip5_9_2977">
<rect width="180" height="170" fill="white"/>
</clipPath>
</defs>
</svg>
