<svg width="70" height="220" viewBox="0 0 70 220" fill="none" xmlns="http://www.w3.org/2000/svg">
<g clip-path="url(#clip0_4_721)">
<rect x="10" width="60" height="10" fill="#3C1C3B"/>
<rect x="10" y="20" width="10" height="40" fill="#674349"/>
<rect x="50" y="10" width="10" height="40" fill="#674349"/>
<rect x="10" y="79" width="10" height="121" fill="#674349"/>
<rect x="50" y="89" width="10" height="121" fill="#674349"/>
<rect x="20" y="60" width="10" height="40" transform="rotate(-90 20 60)" fill="#674349"/>
<rect x="20" y="90" width="10" height="40" transform="rotate(-90 20 90)" fill="#674349"/>
<rect x="10" y="210" width="10" height="40" transform="rotate(-90 10 210)" fill="#674349"/>
<rect x="10" y="20" width="10" height="40" transform="rotate(-90 10 20)" fill="#674349"/>
<rect x="20" y="90" width="30" height="110" fill="#623F45"/>
<rect x="20" y="20" width="30" height="30" fill="#623F45"/>
<rect y="60" width="70" height="10" fill="#3C1C3B"/>
<rect y="70" width="70" height="10" fill="#3C1C3B"/>
<rect y="210" width="70" height="10" fill="#3C1C3B"/>
<rect y="210" width="200" height="10" transform="rotate(-90 0 210)" fill="#3C1C3B"/>
<rect x="60" y="210" width="200" height="10" transform="rotate(-90 60 210)" fill="#3C1C3B"/>
</g>
<defs>
<clipPath id="clip0_4_721">
<rect width="70" height="220" fill="white"/>
</clipPath>
</defs>
</svg>
