<svg width="70" height="880" viewBox="0 0 70 880" fill="none" xmlns="http://www.w3.org/2000/svg">
<g clip-path="url(#clip0_9_2980)">
<rect x="10" y="660" width="60" height="10" fill="#3C1C3B"/>
<rect x="10" y="680" width="10" height="40" fill="#674349"/>
<rect x="50" y="670" width="10" height="40" fill="#674349"/>
<rect x="10" y="739" width="10" height="121" fill="#674349"/>
<rect x="50" y="749" width="10" height="121" fill="#674349"/>
<rect x="20" y="720" width="10" height="40" transform="rotate(-90 20 720)" fill="#674349"/>
<rect x="20" y="750" width="10" height="40" transform="rotate(-90 20 750)" fill="#674349"/>
<rect x="10" y="870" width="10" height="40" transform="rotate(-90 10 870)" fill="#674349"/>
<rect x="10" y="680" width="10" height="40" transform="rotate(-90 10 680)" fill="#674349"/>
<rect x="20" y="750" width="30" height="110" fill="#623F45"/>
<rect x="20" y="680" width="30" height="30" fill="#623F45"/>
<rect y="720" width="70" height="10" fill="#3C1C3B"/>
<rect y="730" width="70" height="10" fill="#3C1C3B"/>
<rect y="870" width="70" height="10" fill="#3C1C3B"/>
<rect y="870" width="200" height="10" transform="rotate(-90 0 870)" fill="#3C1C3B"/>
<rect x="60" y="870" width="200" height="10" transform="rotate(-90 60 870)" fill="#3C1C3B"/>
</g>
<g clip-path="url(#clip1_9_2980)">
<rect x="10" width="60" height="10" fill="#3C1C3B"/>
<rect x="10" y="20" width="10" height="40" fill="#674349"/>
<rect x="50" y="10" width="10" height="40" fill="#674349"/>
<rect x="10" y="79" width="10" height="121" fill="#674349"/>
<rect x="50" y="89" width="10" height="121" fill="#674349"/>
<rect x="20" y="60" width="10" height="40" transform="rotate(-90 20 60)" fill="#674349"/>
<rect x="20" y="90" width="10" height="40" transform="rotate(-90 20 90)" fill="#674349"/>
<rect x="10" y="210" width="10" height="40" transform="rotate(-90 10 210)" fill="#674349"/>
<rect x="10" y="20" width="10" height="40" transform="rotate(-90 10 20)" fill="#674349"/>
<rect x="20" y="90" width="30" height="110" fill="#623F45"/>
<rect x="20" y="20" width="30" height="30" fill="#623F45"/>
<rect y="60" width="70" height="10" fill="#3C1C3B"/>
<rect y="70" width="70" height="10" fill="#3C1C3B"/>
<rect y="210" width="70" height="10" fill="#3C1C3B"/>
<rect y="210" width="200" height="10" transform="rotate(-90 0 210)" fill="#3C1C3B"/>
<rect x="60" y="210" width="200" height="10" transform="rotate(-90 60 210)" fill="#3C1C3B"/>
</g>
<g clip-path="url(#clip2_9_2980)">
<rect x="10" y="220" width="60" height="10" fill="#3C1C3B"/>
<rect x="10" y="240" width="10" height="40" fill="#674349"/>
<rect x="50" y="230" width="10" height="40" fill="#674349"/>
<rect x="10" y="299" width="10" height="121" fill="#674349"/>
<rect x="50" y="309" width="10" height="121" fill="#674349"/>
<rect x="20" y="280" width="10" height="40" transform="rotate(-90 20 280)" fill="#674349"/>
<rect x="20" y="310" width="10" height="40" transform="rotate(-90 20 310)" fill="#674349"/>
<rect x="10" y="430" width="10" height="40" transform="rotate(-90 10 430)" fill="#674349"/>
<rect x="10" y="240" width="10" height="40" transform="rotate(-90 10 240)" fill="#674349"/>
<rect x="20" y="310" width="30" height="110" fill="#623F45"/>
<rect x="20" y="240" width="30" height="30" fill="#623F45"/>
<rect y="280" width="70" height="10" fill="#3C1C3B"/>
<rect y="290" width="70" height="10" fill="#3C1C3B"/>
<rect y="430" width="70" height="10" fill="#3C1C3B"/>
<rect y="430" width="200" height="10" transform="rotate(-90 0 430)" fill="#3C1C3B"/>
<rect x="60" y="430" width="200" height="10" transform="rotate(-90 60 430)" fill="#3C1C3B"/>
</g>
<g clip-path="url(#clip3_9_2980)">
<rect x="10" y="440" width="60" height="10" fill="#3C1C3B"/>
<rect x="10" y="460" width="10" height="40" fill="#674349"/>
<rect x="50" y="450" width="10" height="40" fill="#674349"/>
<rect x="10" y="519" width="10" height="121" fill="#674349"/>
<rect x="50" y="529" width="10" height="121" fill="#674349"/>
<rect x="20" y="500" width="10" height="40" transform="rotate(-90 20 500)" fill="#674349"/>
<rect x="20" y="530" width="10" height="40" transform="rotate(-90 20 530)" fill="#674349"/>
<rect x="10" y="650" width="10" height="40" transform="rotate(-90 10 650)" fill="#674349"/>
<rect x="10" y="460" width="10" height="40" transform="rotate(-90 10 460)" fill="#674349"/>
<rect x="20" y="530" width="30" height="110" fill="#623F45"/>
<rect x="20" y="460" width="30" height="30" fill="#623F45"/>
<rect y="500" width="70" height="10" fill="#3C1C3B"/>
<rect y="510" width="70" height="10" fill="#3C1C3B"/>
<rect y="650" width="70" height="10" fill="#3C1C3B"/>
<rect y="650" width="200" height="10" transform="rotate(-90 0 650)" fill="#3C1C3B"/>
<rect x="60" y="650" width="200" height="10" transform="rotate(-90 60 650)" fill="#3C1C3B"/>
</g>
<defs>
<clipPath id="clip0_9_2980">
<rect width="70" height="220" fill="white" transform="translate(0 660)"/>
</clipPath>
<clipPath id="clip1_9_2980">
<rect width="70" height="220" fill="white"/>
</clipPath>
<clipPath id="clip2_9_2980">
<rect width="70" height="220" fill="white" transform="translate(0 220)"/>
</clipPath>
<clipPath id="clip3_9_2980">
<rect width="70" height="220" fill="white" transform="translate(0 440)"/>
</clipPath>
</defs>
</svg>
